<?xml version="1.0" encoding="UTF-8"?>

<svg xmlns="http://www.w3.org/2000/svg" viewBox="0 0 1920 1920">
    <defs>
        <style>
            .regular {
                font-family: TimesNewRomanPSMT, 'Times New Roman';
            }

            .regular, .italic {
                font-size: 64px;
            }

            .italic {
                font-family: TimesNewRomanPS-ItalicMT, 'Times New Roman';
                font-style: italic;
            }

            .linha {
                stroke-width: 2px;
            }

            .linha, .ponta {
                fill: none;
                stroke: #000;
                stroke-miterlimit: 10;
            }

            .ponta {
                stroke-width: 8px;
            }
        </style>
    </defs>

    <g id="flechas">
        <line class="linha" x1="887.28" y1="253.74" x2="640" y2="320"/>
        <line class="ponta" x1="701.82" y1="303.44" x2="640" y2="320"/>
        <line class="linha" x1="320" y1="863.06" x2="863.06" y2="320"/>
        <line class="ponta" x1="817.8" y1="365.25" x2="863.06" y2="320"/>
        <line class="linha" x1="320" y1="1056.94" x2="863.06" y2="1600"/>
        <line class="ponta" x1="817.8" y1="1554.75" x2="863.06" y2="1600"/>
        <line class="linha" x1="576" y1="1448.95" x2="1344" y2="1448.95"/>
        <line class="ponta" x1="640" y1="1448.95" x2="576" y2="1448.95"/>
        <line class="linha" x1="1600" y1="1056.94" x2="1056.94" y2="1600"/>
        <line class="ponta" x1="1102.2" y1="1554.75" x2="1056.94" y2="1600"/>
        <line class="linha" x1="1600" y1="863.06" x2="1056.94" y2="320"/>
        <line class="ponta" x1="1102.2" y1="365.25" x2="1056.94" y2="320"/>
        <line class="linha" x1="1032.72" y1="253.74" x2="1280" y2="320"/>
        <line class="ponta" x1="1218.18" y1="303.44" x2="1280" y2="320"/>
        <line class="linha" x1="896" y1="849.15" x2="640" y2="405.74"/>
        <line class="ponta" x1="672" y1="461.17" x2="640" y2="405.74"/>
        <line class="linha" x1="849.15" y1="896" x2="405.74" y2="640"/>
        <line class="ponta" x1="461.17" y1="672" x2="405.74" y2="640"/>
        <line class="linha" x1="832" y1="960" x2="320" y2="960"/>
        <line class="ponta" x1="384" y1="960" x2="320" y2="960"/>
        <line class="linha" x1="869.49" y1="1050.51" x2="507.45" y2="1412.55"/>
        <line class="ponta" x1="552.71" y1="1367.29" x2="507.45" y2="1412.55"/>
        <line class="linha" x1="960" y1="1088" x2="960" y2="1600"/>
        <line class="ponta" x1="960" y1="1536" x2="960" y2="1600"/>
        <line class="linha" x1="1050.51" y1="1050.51" x2="1412.55" y2="1412.55"/>
        <line class="ponta" x1="1367.29" y1="1367.29" x2="1412.55" y2="1412.55"/>
        <line class="linha" x1="1088" y1="960" x2="1600" y2="960"/>
        <line class="ponta" x1="1536" y1="960" x2="1600" y2="960"/>
        <line class="linha" x1="1070.85" y1="896" x2="1514.26" y2="640"/>
        <line class="ponta" x1="1458.83" y1="672" x2="1514.26" y2="640"/>
        <line class="linha" x1="1024" y1="849.15" x2="1280" y2="405.74"/>
        <line class="ponta" x1="1248" y1="461.17" x2="1280" y2="405.74"/>
        <line class="linha" x1="960" y1="832" x2="960" y2="320"/>
        <line class="ponta" x1="960" y1="384" x2="960" y2="320"/>
    </g>
</svg>