<?xml version="1.0" encoding="UTF-8"?>

<svg xmlns="http://www.w3.org/2000/svg" viewBox="0 0 1920 1920">
    <defs>
        <style>
            .regular {
                font-family: TimesNewRomanPSMT, 'Times New Roman';
            }

            .regular,
            .italic {
                font-size: 64px;
            }

            .italic {
                font-family: TimesNewRomanPS-ItalicMT, 'Times New Roman';
                font-style: italic;
            }

            .linea {
                stroke-width: 2px;
            }

            .linea,
            .punta {
                fill: none;
                stroke: #000;
                stroke-miterlimit: 10;
            }

            .punta {
                stroke-width: 8px;
            }
        </style>
    </defs>

    <g id="flechas">
        <line class="linea" x1="887.28" y1="253.74" x2="640" y2="320" />
        <line class="punta" x1="701.82" y1="303.44" x2="640" y2="320" />
        <line class="linea" x1="320" y1="863.06" x2="863.06" y2="320" />
        <line class="punta" x1="817.8" y1="365.25" x2="863.06" y2="320" />
        <line class="linea" x1="320" y1="1056.94" x2="863.06" y2="1600" />
        <line class="punta" x1="817.8" y1="1554.75" x2="863.06" y2="1600" />
        <line class="linea" x1="576" y1="1448.95" x2="1344" y2="1448.95" />
        <line class="punta" x1="640" y1="1448.95" x2="576" y2="1448.95" />
        <line class="linea" x1="1600" y1="1056.94" x2="1056.94" y2="1600" />
        <line class="punta" x1="1102.2" y1="1554.75" x2="1056.94" y2="1600" />
        <line class="linea" x1="1600" y1="863.06" x2="1056.94" y2="320" />
        <line class="punta" x1="1102.2" y1="365.25" x2="1056.94" y2="320" />
        <line class="linea" x1="1032.72" y1="253.74" x2="1280" y2="320" />
        <line class="punta" x1="1218.18" y1="303.44" x2="1280" y2="320" />
        <line class="linea" x1="896" y1="849.15" x2="640" y2="405.74" />
        <line class="punta" x1="672" y1="461.17" x2="640" y2="405.74" />
        <line class="linea" x1="849.15" y1="896" x2="405.74" y2="640" />
        <line class="punta" x1="461.17" y1="672" x2="405.74" y2="640" />
        <line class="linea" x1="832" y1="960" x2="320" y2="960" />
        <line class="punta" x1="384" y1="960" x2="320" y2="960" />
        <line class="linea" x1="869.49" y1="1050.51" x2="507.45" y2="1412.55" />
        <line class="punta" x1="552.71" y1="1367.29" x2="507.45" y2="1412.55" />
        <line class="linea" x1="960" y1="1088" x2="960" y2="1600" />
        <line class="punta" x1="960" y1="1536" x2="960" y2="1600" />
        <line class="linea" x1="1050.51" y1="1050.51" x2="1412.55" y2="1412.55" />
        <line class="punta" x1="1367.29" y1="1367.29" x2="1412.55" y2="1412.55" />
        <line class="linea" x1="1088" y1="960" x2="1600" y2="960" />
        <line class="punta" x1="1536" y1="960" x2="1600" y2="960" />
        <line class="linea" x1="1070.85" y1="896" x2="1514.26" y2="640" />
        <line class="punta" x1="1458.83" y1="672" x2="1514.26" y2="640" />
        <line class="linea" x1="1024" y1="849.15" x2="1280" y2="405.74" />
        <line class="punta" x1="1248" y1="461.17" x2="1280" y2="405.74" />
        <line class="linea" x1="960" y1="832" x2="960" y2="320" />
        <line class="punta" x1="960" y1="384" x2="960" y2="320" />
    </g>

    <g id="textos">
        <a href="https://cvssn.github.io/pages/lifeaudio/archangel.html" target="_top">
            <text class="italic" transform="translate(381.25 386.12)">
                <tspan x="0" y="0">
                    archangel
                </tspan>
            </text>
        </a>

        <a href="https://cvssn.github.io/pages/lifeaudio/atlas.html" target="_top">
            <text class="italic" transform="translate(249.27 620.38)">
                <tspan x="0" y="0">
                    atlas
                </tspan>
            </text>
        </a>

        <a href="https://cvssn.github.io/pages/lifeaudio/products.html" target="_top">
            <text class="regular" transform="translate(35.59 976.78)">
                <tspan x="0" y="0">
                    products
                </tspan>
            </text>
        </a>

        <a href="https://cvssn.github.io/pages/lifeaudio/contact.html" target="_top">
            <text class="regular" transform="translate(258.67 1465.74)">
                <tspan x="0" y="0">
                    contact
                </tspan>
            </text>
        </a>

        <a href="https://cvssn.github.io/pages/lifeaudio/maniphesto.html" target="_top">
            <text class="regular" transform="translate(824.92 1685.19)">
                <tspan x="0" y="0">
                    maniphesto
                </tspan>
            </text>
        </a>

        <a href="https://cvssn.github.io/pages/lifeaudio/architecture.html" target="_top">
            <text class="italic" transform="translate(1446.79 1465.74)">
                <tspan x="0" y="0">
                    architecture
                </tspan>
            </text>
        </a>

        <a href="https://cvssn.github.io/pages/lifeaudio/projects.html" target="_top">
            <text class="regular" transform="translate(1632.26 976.78)">
                <tspan x="0" y="0">
                    projects
                </tspan>
            </text>
        </a>

        <a href="https://cvssn.github.io/pages/lifeaudio/12-e.html" target="_top">
            <text class="italic" transform="translate(1546.26 620.38)">
                <tspan x="0" y="0">
                    12.e
                </tspan>
            </text>
        </a>
        
        <a href="https://cvssn.github.io/pages/lifeaudio/ep-t.html" target="_top">
            <text class="italic" transform="translate(1312 386.12)">
                <tspan x="0" y="0">
                    ep.t
                </tspan>
            </text>
        </a>

        <a href="https://cvssn.github.io/pages/lifeaudio/ep-1.html" target="_top">
            <text class="italic" transform="translate(905.8 268.37)">
                <tspan x="0" y="0">
                    ep.1
                </tspan>
            </text>
        </a>

        <a href="/" target="_top">
            <text class="italic" transform="translate(898.92 976.78)">
                <tspan x="0" y="0">
                    life
                </tspan>
            </text>
        </a>
    </g>
</svg>