<?xml version="1.0" encoding="UTF-8"?>
<svg version="1.1" xmlns="http://www.w3.org/2000/svg" width="500" height="500">
<path d="M0 0 C16.5 0 33 0 50 0 C50.33 47.19 50.66 94.38 51 143 C65.19 136.73 79.38 130.46 94 124 C114.5 115 114.5 115 124.5625 110.5859375 C135.88323016 105.61760489 147.19232634 100.6229628 158.5 95.625 C159.88191528 95.01422607 159.88191528 95.01422607 161.29174805 94.39111328 C163.91333981 93.23230228 166.53483112 92.07326452 169.15625 90.9140625 C169.9201001 90.57629791 170.6839502 90.23853333 171.47094727 89.89053345 C172.20047607 89.56781464 172.93000488 89.24509583 173.68164062 88.91259766 C174.38844971 88.60332336 175.09525879 88.29404907 175.82348633 87.97540283 C177.36307616 87.2854369 178.89067084 86.56840783 180.40893555 85.83270264 C181.19888916 85.45655823 181.98884277 85.08041382 182.80273438 84.69287109 C183.5118396 84.34533783 184.22094482 83.99780457 184.95153809 83.63973999 C187.46249304 82.85556222 188.60861125 82.9074854 191 84 C192.20233154 85.73251343 192.20233154 85.73251343 193.19824219 88.01318359 C193.57833435 88.86431732 193.95842651 89.71545105 194.35003662 90.59237671 C194.74499329 91.51837677 195.13994995 92.44437683 195.546875 93.3984375 C195.96294006 94.34433746 196.37900513 95.29023743 196.80767822 96.26480103 C197.68525191 98.26756179 198.55565267 100.2734785 199.41943359 102.28222656 C200.74437499 105.36192521 202.09080469 108.43148052 203.44140625 111.5 C204.29034051 113.44475512 205.13803868 115.39005038 205.984375 117.3359375 C206.58895538 118.7188649 206.58895538 118.7188649 207.20574951 120.12973022 C207.57323303 120.98716827 207.94071655 121.84460632 208.31933594 122.72802734 C208.64480408 123.48223969 208.97027222 124.23645203 209.30560303 125.01351929 C210 127 210 127 210 130 C171.43264621 147.16076592 132.84046706 164.26372892 94.18066406 181.21533203 C93.36145477 181.57459274 92.54224548 181.93385345 91.69821167 182.30400085 C90.18994712 182.96536571 88.68159425 183.62652921 87.17312622 184.28742981 C82.10796006 186.50826096 77.05220126 188.74983868 72 191 C76.01475771 197.11777993 80.19054395 203.07013625 84.5625 208.9375 C89.2501158 215.26229796 93.90297495 221.60904838 98.5 228 C105.25948375 237.3880577 112.12417755 246.69697051 119 256 C126.41250761 266.02916777 133.80630743 276.06896526 141.0793457 286.19995117 C143.97954973 290.23213733 146.91305276 294.23545236 149.890625 298.2109375 C150.53451172 299.07332031 151.17839844 299.93570312 151.84179688 300.82421875 C153.08772677 302.48970948 154.33881198 304.1513595 155.59570312 305.80859375 C156.4377832 306.93587891 156.4377832 306.93587891 157.296875 308.0859375 C157.79541992 308.7464209 158.29396484 309.4069043 158.80761719 310.08740234 C160.04198693 312.06734759 160.56991768 313.71954876 161 316 C151.3787975 323.11685535 141.74472287 330.21630901 132.0625 337.25 C130.93739014 338.07213989 130.93739014 338.07213989 129.78955078 338.91088867 C129.08685059 339.41982666 128.38415039 339.92876465 127.66015625 340.453125 C127.04793213 340.89817383 126.43570801 341.34322266 125.80493164 341.80175781 C123.93387147 343.04390083 122.02717686 344.03768476 120 345 C114.4213778 338.29217029 109.28542511 331.31648625 104.20239258 324.23095703 C100.17744103 318.62188108 96.10517193 313.05059874 92 307.5 C87.46222728 301.36003384 82.9603317 295.19644986 78.5 289 C71.74016251 279.61219227 64.87582656 270.30303505 58 261 C50.42483245 250.75075235 42.8717059 240.48849042 35.43725586 230.13647461 C32.01659461 225.37940005 28.53243033 220.67467675 25 216 C20.57393011 220.13759234 17.10591364 224.72315295 13.5625 229.625 C12.31525153 231.33474293 11.06785144 233.04437526 9.8203125 234.75390625 C9.18641602 235.62547363 8.55251953 236.49704102 7.89941406 237.39501953 C5.50682954 240.67636617 3.09356126 243.94211904 0.67895508 247.20727539 C-4.46803745 254.16830678 -9.57008213 261.15934073 -14.625 268.1875 C-19.16841138 274.50421695 -23.79283587 280.75180287 -28.48095703 286.96166992 C-32.22032151 291.92764904 -35.87295161 296.95154076 -39.5 302 C-44.12480332 308.43603546 -48.82335126 314.80870207 -53.59472656 321.13671875 C-58.79767918 328.0415067 -63.90304646 335.01677231 -69 342 C-72.23031416 341.3875012 -74.26136227 340.30155659 -76.87890625 338.33203125 C-77.6268042 337.77467285 -78.37470215 337.21731445 -79.14526367 336.64306641 C-79.94295166 336.03897949 -80.74063965 335.43489258 -81.5625 334.8125 C-83.25767044 333.54538285 -84.95298753 332.27846186 -86.6484375 331.01171875 C-87.52338867 330.35478027 -88.39833984 329.6978418 -89.29980469 329.02099609 C-93.7427095 325.69564654 -98.21628299 322.41212127 -102.6875 319.125 C-104.29571781 317.94030084 -105.90380427 316.75542332 -107.51171875 315.5703125 C-108.18678467 315.07289551 -108.86185059 314.57547852 -109.55737305 314.06298828 C-110.03343994 313.71220215 -110.50950684 313.36141602 -111 313 C-109.56538776 308.80299609 -107.50637819 305.83416336 -104.75 302.375 C-103.84323846 301.22147543 -102.93840458 300.06643385 -102.03515625 298.91015625 C-101.5467627 298.28512207 -101.05836914 297.66008789 -100.55517578 297.01611328 C-97.70778387 293.32478481 -94.94892757 289.56833161 -92.1875 285.8125 C-91.29780518 284.60315796 -91.29780518 284.60315796 -90.39013672 283.36938477 C-85.80739559 277.12643644 -81.27680777 270.84669923 -76.75463867 264.55981445 C-72.74546033 258.99912857 -68.64937684 253.50935425 -64.51904297 248.03833008 C-60.77967953 243.07235234 -57.12699262 238.04849805 -53.5 233 C-48.92482132 226.63169904 -44.27091976 220.33193672 -39.54589844 214.07421875 C-33.57201105 206.14083271 -27.78751005 198.06982901 -22 190 C-31.0829026 185.31921324 -40.25490014 181.05679644 -49.66885376 177.09100342 C-53.48164221 175.48399041 -57.28752489 173.86076495 -61.09375 172.23828125 C-62.29473076 171.72672485 -62.29473076 171.72672485 -63.51997375 171.20483398 C-72.98226575 167.16667555 -82.39711943 163.0210605 -91.8125 158.875 C-95.26936999 157.35379996 -98.72642749 155.83302658 -102.18359375 154.3125 C-103.01890121 153.94509201 -103.85420868 153.57768402 -104.71482849 153.19914246 C-123.41089524 144.98010194 -142.14917435 136.85846762 -161 129 C-159.38687823 123.81596832 -157.30119901 118.91583176 -155.12109375 113.953125 C-154.74896255 113.10071228 -154.37683136 112.24829956 -153.99342346 111.37005615 C-152.8105389 108.66230383 -151.62400579 105.95616718 -150.4375 103.25 C-149.63584151 101.41546341 -148.83440684 99.580829 -148.03320312 97.74609375 C-146.57086302 94.40080479 -145.10848996 91.05553258 -143.64233398 87.71191406 C-143.34858383 87.0416217 -143.05483368 86.37132935 -142.75218201 85.6807251 C-142.1971088 84.4404329 -141.60768923 83.21537846 -141 82 C-136.78644089 82.66485652 -133.20750694 84.05930641 -129.296875 85.74609375 C-128.63896469 86.02849411 -127.98105438 86.31089447 -127.3032074 86.60185242 C-125.11665657 87.5421681 -122.93331352 88.48969447 -120.75 89.4375 C-119.19713824 90.10752976 -117.6441571 90.77728293 -116.09106445 91.44677734 C-102.34694756 97.38094755 -88.64166405 103.40448484 -74.93920898 109.43408203 C-59.98430078 116.01466694 -44.9973994 122.51640812 -30 129 C-20.1 133.29 -10.2 137.58 0 142 C0 95.14 0 48.28 0 0 Z " fill="#000000" transform="translate(225,78)"/>
</svg>
