<svg width="93" height="10" viewBox="0 0 93 10" fill="none" xmlns="http://www.w3.org/2000/svg">
<rect x="1" y="1" width="91" height="8" rx="1" stroke="#A6A6A6"/>
<path d="M3.306 5.458H4.002C4.046 5.606 4.094 5.74 4.146 5.86C4.202 5.98 4.274 6.082 4.362 6.166C4.45 6.25 4.558 6.316 4.686 6.364C4.818 6.408 4.976 6.43 5.16 6.43C5.46 6.43 5.69 6.374 5.85 6.262C6.014 6.146 6.096 5.986 6.096 5.782C6.096 5.67 6.07 5.578 6.018 5.506C5.966 5.43 5.892 5.368 5.796 5.32C5.7 5.272 5.582 5.232 5.442 5.2C5.306 5.168 5.152 5.138 4.98 5.11C4.72 5.066 4.5 5.012 4.32 4.948C4.14 4.884 3.992 4.808 3.876 4.72C3.764 4.628 3.682 4.522 3.63 4.402C3.578 4.282 3.552 4.142 3.552 3.982C3.552 3.794 3.59 3.622 3.666 3.466C3.746 3.306 3.856 3.17 3.996 3.058C4.136 2.946 4.302 2.86 4.494 2.8C4.69 2.736 4.904 2.704 5.136 2.704C5.368 2.704 5.574 2.734 5.754 2.794C5.934 2.85 6.09 2.938 6.222 3.058C6.354 3.174 6.46 3.32 6.54 3.496C6.624 3.672 6.684 3.876 6.72 4.108L6.03 4.12C6.014 3.984 5.982 3.868 5.934 3.772C5.89 3.676 5.83 3.598 5.754 3.538C5.678 3.474 5.586 3.428 5.478 3.4C5.37 3.372 5.244 3.358 5.1 3.358C4.972 3.358 4.856 3.372 4.752 3.4C4.648 3.424 4.558 3.46 4.482 3.508C4.41 3.556 4.354 3.614 4.314 3.682C4.278 3.75 4.26 3.826 4.26 3.91C4.26 3.998 4.278 4.072 4.314 4.132C4.35 4.192 4.4 4.242 4.464 4.282C4.532 4.318 4.612 4.35 4.704 4.378C4.8 4.402 4.904 4.422 5.016 4.438C5.304 4.486 5.558 4.542 5.778 4.606C6.002 4.666 6.19 4.744 6.342 4.84C6.494 4.932 6.608 5.05 6.684 5.194C6.764 5.334 6.804 5.506 6.804 5.71C6.804 5.922 6.766 6.114 6.69 6.286C6.614 6.454 6.504 6.598 6.36 6.718C6.22 6.834 6.048 6.924 5.844 6.988C5.644 7.052 5.416 7.084 5.16 7.084C4.912 7.084 4.682 7.048 4.47 6.976C4.262 6.9 4.078 6.792 3.918 6.652C3.762 6.512 3.63 6.342 3.522 6.142C3.418 5.938 3.346 5.71 3.306 5.458ZM8.45536 7V3.46H7.06336V2.8H10.5554V3.46H9.16336V7H8.45536ZM11.0932 7V2.8H13.0252C13.2372 2.8 13.4272 2.83 13.5952 2.89C13.7632 2.95 13.9052 3.034 14.0212 3.142C14.1412 3.25 14.2312 3.38 14.2912 3.532C14.3552 3.684 14.3872 3.856 14.3872 4.048C14.3872 4.156 14.3752 4.26 14.3512 4.36C14.3312 4.46 14.2992 4.552 14.2552 4.636C14.2152 4.72 14.1632 4.796 14.0992 4.864C14.0392 4.932 13.9692 4.988 13.8892 5.032C13.9612 5.052 14.0192 5.076 14.0632 5.104C14.1112 5.132 14.1472 5.168 14.1712 5.212C14.1952 5.256 14.2112 5.308 14.2192 5.368C14.2272 5.424 14.2312 5.494 14.2312 5.578V7H13.5292V5.716C13.5292 5.656 13.5152 5.604 13.4872 5.56C13.4632 5.516 13.4312 5.482 13.3912 5.458C13.3512 5.43 13.3032 5.41 13.2472 5.398C13.1912 5.386 13.1312 5.38 13.0672 5.38H11.7952V7H11.0932ZM11.7952 4.726H12.9952C13.1072 4.726 13.2052 4.71 13.2892 4.678C13.3772 4.642 13.4492 4.594 13.5052 4.534C13.5612 4.47 13.6032 4.396 13.6312 4.312C13.6632 4.228 13.6792 4.138 13.6792 4.042C13.6792 3.838 13.6172 3.69 13.4932 3.598C13.3732 3.506 13.2052 3.46 12.9892 3.46H11.7952V4.726ZM16.2077 5.158H17.4977L16.8497 3.67L16.2077 5.158ZM14.6957 7L16.4717 2.8H17.2397L18.9977 7H18.2297L17.7197 5.818H15.9737L15.4577 7H14.6957ZM20.0267 7V3.46H18.6347V2.8H22.1267V3.46H20.7347V7H20.0267ZM22.6645 7V2.8H25.7125V3.46H23.3665V4.552H25.2445V5.212H23.3665V6.34H25.7125V7H22.6645ZM30.362 5.338V7.006H29.66V6.592C29.588 6.684 29.498 6.764 29.39 6.832C29.282 6.896 29.166 6.948 29.042 6.988C28.922 7.024 28.796 7.05 28.664 7.066C28.536 7.082 28.41 7.09 28.286 7.09C27.922 7.09 27.604 7.03 27.332 6.91C27.064 6.786 26.84 6.624 26.66 6.424C26.484 6.224 26.352 5.994 26.264 5.734C26.18 5.47 26.138 5.198 26.138 4.918C26.138 4.61 26.188 4.322 26.288 4.054C26.392 3.782 26.538 3.546 26.726 3.346C26.918 3.142 27.146 2.982 27.41 2.866C27.678 2.75 27.976 2.692 28.304 2.692C28.536 2.692 28.748 2.722 28.94 2.782C29.136 2.838 29.312 2.92 29.468 3.028C29.628 3.132 29.768 3.256 29.888 3.4C30.012 3.544 30.116 3.704 30.2 3.88L29.588 4.186C29.52 4.062 29.444 3.95 29.36 3.85C29.28 3.746 29.186 3.658 29.078 3.586C28.97 3.51 28.85 3.452 28.718 3.412C28.59 3.368 28.446 3.346 28.286 3.346C28.062 3.346 27.86 3.386 27.68 3.466C27.504 3.546 27.354 3.656 27.23 3.796C27.106 3.936 27.01 4.102 26.942 4.294C26.878 4.482 26.846 4.686 26.846 4.906C26.846 5.118 26.876 5.316 26.936 5.5C26.996 5.684 27.084 5.846 27.2 5.986C27.32 6.126 27.468 6.236 27.644 6.316C27.82 6.396 28.024 6.436 28.256 6.436C28.416 6.436 28.574 6.414 28.73 6.37C28.89 6.326 29.034 6.262 29.162 6.178C29.294 6.094 29.402 5.99 29.486 5.866C29.574 5.738 29.624 5.592 29.636 5.428H28.352V4.774H29.786C29.982 4.774 30.126 4.82 30.218 4.912C30.314 5.004 30.362 5.146 30.362 5.338ZM30.8623 7V2.8H31.5703V7H30.8623ZM35.5222 5.476H36.2302C36.1662 5.724 36.0742 5.95 35.9542 6.154C35.8342 6.358 35.6862 6.532 35.5102 6.676C35.3382 6.816 35.1402 6.924 34.9162 7C34.6962 7.076 34.4522 7.114 34.1842 7.114C33.8522 7.114 33.5522 7.056 33.2842 6.94C33.0162 6.824 32.7882 6.666 32.6002 6.466C32.4162 6.266 32.2742 6.032 32.1742 5.764C32.0742 5.496 32.0242 5.206 32.0242 4.894C32.0202 4.586 32.0682 4.298 32.1682 4.03C32.2722 3.758 32.4182 3.524 32.6062 3.328C32.7942 3.128 33.0222 2.972 33.2902 2.86C33.5582 2.744 33.8582 2.686 34.1902 2.686C34.4502 2.686 34.6902 2.722 34.9102 2.794C35.1302 2.866 35.3282 2.97 35.5042 3.106C35.6802 3.238 35.8282 3.402 35.9482 3.598C36.0722 3.794 36.1662 4.016 36.2302 4.264H35.5222C35.4782 4.1 35.4122 3.96 35.3242 3.844C35.2362 3.728 35.1322 3.634 35.0122 3.562C34.8962 3.486 34.7662 3.432 34.6222 3.4C34.4822 3.364 34.3362 3.346 34.1842 3.346C33.9282 3.346 33.7082 3.39 33.5242 3.478C33.3402 3.562 33.1882 3.676 33.0682 3.82C32.9522 3.964 32.8662 4.128 32.8102 4.312C32.7582 4.492 32.7322 4.68 32.7322 4.876C32.7322 5.076 32.7602 5.272 32.8162 5.464C32.8762 5.652 32.9662 5.82 33.0862 5.968C33.2062 6.116 33.3582 6.236 33.5422 6.328C33.7262 6.416 33.9462 6.46 34.2022 6.46C34.3622 6.46 34.5122 6.44 34.6522 6.4C34.7922 6.36 34.9182 6.3 35.0302 6.22C35.1462 6.136 35.2462 6.034 35.3302 5.914C35.4142 5.79 35.4782 5.644 35.5222 5.476Z" fill="#A6A6A6"/>
<path d="M43.7 5.188V4.6H41.252L42.218 3.652L41.762 3.208L40.04 4.894L41.756 6.562L42.206 6.124L41.252 5.188H43.7Z" fill="#A6A6A6"/>
<path d="M43.3 5.188V4.6H45.748L44.782 3.652L45.238 3.208L46.96 4.894L45.244 6.562L44.794 6.124L45.748 5.188H43.3Z" fill="#A6A6A6"/>
<path d="M50.306 7V2.8H51.896C52.18 2.8 52.446 2.856 52.694 2.968C52.942 3.08 53.158 3.232 53.342 3.424C53.53 3.612 53.678 3.834 53.786 4.09C53.898 4.342 53.954 4.61 53.954 4.894C53.954 5.178 53.898 5.448 53.786 5.704C53.678 5.96 53.53 6.184 53.342 6.376C53.158 6.568 52.942 6.72 52.694 6.832C52.446 6.944 52.184 7 51.908 7H50.306ZM51.014 6.34H51.86C52.064 6.34 52.25 6.306 52.418 6.238C52.59 6.166 52.736 6.066 52.856 5.938C52.98 5.81 53.076 5.658 53.144 5.482C53.212 5.306 53.246 5.114 53.246 4.906C53.246 4.69 53.212 4.494 53.144 4.318C53.076 4.142 52.98 3.992 52.856 3.868C52.736 3.74 52.59 3.64 52.418 3.568C52.25 3.496 52.062 3.46 51.854 3.46H51.008L51.014 6.34ZM54.3739 7V2.8H55.0819V7H54.3739ZM55.5065 5.458H56.2025C56.2465 5.606 56.2945 5.74 56.3465 5.86C56.4025 5.98 56.4745 6.082 56.5625 6.166C56.6505 6.25 56.7585 6.316 56.8865 6.364C57.0185 6.408 57.1765 6.43 57.3605 6.43C57.6605 6.43 57.8905 6.374 58.0505 6.262C58.2145 6.146 58.2965 5.986 58.2965 5.782C58.2965 5.67 58.2705 5.578 58.2185 5.506C58.1665 5.43 58.0925 5.368 57.9965 5.32C57.9005 5.272 57.7825 5.232 57.6425 5.2C57.5065 5.168 57.3525 5.138 57.1805 5.11C56.9205 5.066 56.7005 5.012 56.5205 4.948C56.3405 4.884 56.1925 4.808 56.0765 4.72C55.9645 4.628 55.8825 4.522 55.8305 4.402C55.7785 4.282 55.7525 4.142 55.7525 3.982C55.7525 3.794 55.7905 3.622 55.8665 3.466C55.9465 3.306 56.0565 3.17 56.1965 3.058C56.3365 2.946 56.5025 2.86 56.6945 2.8C56.8905 2.736 57.1045 2.704 57.3365 2.704C57.5685 2.704 57.7745 2.734 57.9545 2.794C58.1345 2.85 58.2905 2.938 58.4225 3.058C58.5545 3.174 58.6605 3.32 58.7405 3.496C58.8245 3.672 58.8845 3.876 58.9205 4.108L58.2305 4.12C58.2145 3.984 58.1825 3.868 58.1345 3.772C58.0905 3.676 58.0305 3.598 57.9545 3.538C57.8785 3.474 57.7865 3.428 57.6785 3.4C57.5705 3.372 57.4445 3.358 57.3005 3.358C57.1725 3.358 57.0565 3.372 56.9525 3.4C56.8485 3.424 56.7585 3.46 56.6825 3.508C56.6105 3.556 56.5545 3.614 56.5145 3.682C56.4785 3.75 56.4605 3.826 56.4605 3.91C56.4605 3.998 56.4785 4.072 56.5145 4.132C56.5505 4.192 56.6005 4.242 56.6645 4.282C56.7325 4.318 56.8125 4.35 56.9045 4.378C57.0005 4.402 57.1045 4.422 57.2165 4.438C57.5045 4.486 57.7585 4.542 57.9785 4.606C58.2025 4.666 58.3905 4.744 58.5425 4.84C58.6945 4.932 58.8085 5.05 58.8845 5.194C58.9645 5.334 59.0045 5.506 59.0045 5.71C59.0045 5.922 58.9665 6.114 58.8905 6.286C58.8145 6.454 58.7045 6.598 58.5605 6.718C58.4205 6.834 58.2485 6.924 58.0445 6.988C57.8445 7.052 57.6165 7.084 57.3605 7.084C57.1125 7.084 56.8825 7.048 56.6705 6.976C56.4625 6.9 56.2785 6.792 56.1185 6.652C55.9625 6.512 55.8305 6.342 55.7225 6.142C55.6185 5.938 55.5465 5.71 55.5065 5.458ZM59.4281 5.458H60.1241C60.1681 5.606 60.2161 5.74 60.2681 5.86C60.3241 5.98 60.3961 6.082 60.4841 6.166C60.5721 6.25 60.6801 6.316 60.8081 6.364C60.9401 6.408 61.0981 6.43 61.2821 6.43C61.5821 6.43 61.8121 6.374 61.9721 6.262C62.1361 6.146 62.2181 5.986 62.2181 5.782C62.2181 5.67 62.1921 5.578 62.1401 5.506C62.0881 5.43 62.0141 5.368 61.9181 5.32C61.8221 5.272 61.7041 5.232 61.5641 5.2C61.4281 5.168 61.2741 5.138 61.1021 5.11C60.8421 5.066 60.6221 5.012 60.4421 4.948C60.2621 4.884 60.1141 4.808 59.9981 4.72C59.8861 4.628 59.8041 4.522 59.7521 4.402C59.7001 4.282 59.6741 4.142 59.6741 3.982C59.6741 3.794 59.7121 3.622 59.7881 3.466C59.8681 3.306 59.9781 3.17 60.1181 3.058C60.2581 2.946 60.4241 2.86 60.6161 2.8C60.8121 2.736 61.0261 2.704 61.2581 2.704C61.4901 2.704 61.6961 2.734 61.8761 2.794C62.0561 2.85 62.2121 2.938 62.3441 3.058C62.4761 3.174 62.5821 3.32 62.6621 3.496C62.7461 3.672 62.8061 3.876 62.8421 4.108L62.1521 4.12C62.1361 3.984 62.1041 3.868 62.0561 3.772C62.0121 3.676 61.9521 3.598 61.8761 3.538C61.8001 3.474 61.7081 3.428 61.6001 3.4C61.4921 3.372 61.3661 3.358 61.2221 3.358C61.0941 3.358 60.9781 3.372 60.8741 3.4C60.7701 3.424 60.6801 3.46 60.6041 3.508C60.5321 3.556 60.4761 3.614 60.4361 3.682C60.4001 3.75 60.3821 3.826 60.3821 3.91C60.3821 3.998 60.4001 4.072 60.4361 4.132C60.4721 4.192 60.5221 4.242 60.5861 4.282C60.6541 4.318 60.7341 4.35 60.8261 4.378C60.9221 4.402 61.0261 4.422 61.1381 4.438C61.4261 4.486 61.6801 4.542 61.9001 4.606C62.1241 4.666 62.3121 4.744 62.4641 4.84C62.6161 4.932 62.7301 5.05 62.8061 5.194C62.8861 5.334 62.9261 5.506 62.9261 5.71C62.9261 5.922 62.8881 6.114 62.8121 6.286C62.7361 6.454 62.6261 6.598 62.4821 6.718C62.3421 6.834 62.1701 6.924 61.9661 6.988C61.7661 7.052 61.5381 7.084 61.2821 7.084C61.0341 7.084 60.8041 7.048 60.5921 6.976C60.3841 6.9 60.2001 6.792 60.0401 6.652C59.8841 6.512 59.7521 6.342 59.6441 6.142C59.5401 5.938 59.4681 5.71 59.4281 5.458ZM64.0517 4.906C64.0517 5.13 64.0877 5.336 64.1597 5.524C64.2317 5.712 64.3297 5.874 64.4537 6.01C64.5817 6.142 64.7337 6.246 64.9097 6.322C65.0857 6.394 65.2797 6.43 65.4917 6.43C65.6997 6.43 65.8917 6.394 66.0677 6.322C66.2437 6.246 66.3937 6.142 66.5177 6.01C66.6457 5.874 66.7437 5.714 66.8117 5.53C66.8837 5.342 66.9197 5.136 66.9197 4.912C66.9197 4.684 66.8837 4.476 66.8117 4.288C66.7397 4.096 66.6397 3.932 66.5117 3.796C66.3877 3.656 66.2377 3.548 66.0617 3.472C65.8857 3.392 65.6937 3.352 65.4857 3.352C65.2777 3.352 65.0857 3.392 64.9097 3.472C64.7337 3.548 64.5817 3.656 64.4537 3.796C64.3297 3.932 64.2317 4.096 64.1597 4.288C64.0877 4.476 64.0517 4.682 64.0517 4.906ZM65.4917 7.084C65.1837 7.084 64.8977 7.03 64.6337 6.922C64.3697 6.81 64.1417 6.656 63.9497 6.46C63.7617 6.264 63.6137 6.034 63.5057 5.77C63.3977 5.502 63.3437 5.214 63.3437 4.906C63.3437 4.598 63.3977 4.31 63.5057 4.042C63.6137 3.774 63.7637 3.54 63.9557 3.34C64.1477 3.136 64.3737 2.978 64.6337 2.866C64.8977 2.754 65.1837 2.698 65.4917 2.698C65.7997 2.698 66.0837 2.754 66.3437 2.866C66.6037 2.978 66.8277 3.134 67.0157 3.334C67.2077 3.53 67.3557 3.764 67.4597 4.036C67.5677 4.304 67.6217 4.594 67.6217 4.906C67.6217 5.218 67.5677 5.508 67.4597 5.776C67.3557 6.04 67.2097 6.27 67.0217 6.466C66.8337 6.658 66.6077 6.81 66.3437 6.922C66.0837 7.03 65.7997 7.084 65.4917 7.084ZM68.1704 7V2.8H68.9564L71.2304 5.944V2.8H71.9384V7H71.1524L68.8784 3.838V7H68.1704ZM73.9939 5.158H75.2839L74.6359 3.67L73.9939 5.158ZM72.4819 7L74.2579 2.8H75.0259L76.7839 7H76.0159L75.5059 5.818H73.7599L73.2439 7H72.4819ZM77.2616 7V2.8H78.0476L80.3216 5.944V2.8H81.0296V7H80.2436L77.9696 3.838V7H77.2616ZM85.1003 5.476H85.8083C85.7443 5.724 85.6523 5.95 85.5323 6.154C85.4123 6.358 85.2643 6.532 85.0883 6.676C84.9163 6.816 84.7183 6.924 84.4943 7C84.2743 7.076 84.0303 7.114 83.7623 7.114C83.4303 7.114 83.1303 7.056 82.8623 6.94C82.5943 6.824 82.3663 6.666 82.1783 6.466C81.9943 6.266 81.8523 6.032 81.7523 5.764C81.6523 5.496 81.6023 5.206 81.6023 4.894C81.5983 4.586 81.6463 4.298 81.7463 4.03C81.8503 3.758 81.9963 3.524 82.1843 3.328C82.3723 3.128 82.6003 2.972 82.8683 2.86C83.1363 2.744 83.4363 2.686 83.7683 2.686C84.0283 2.686 84.2683 2.722 84.4883 2.794C84.7083 2.866 84.9063 2.97 85.0823 3.106C85.2583 3.238 85.4063 3.402 85.5263 3.598C85.6503 3.794 85.7443 4.016 85.8083 4.264H85.1003C85.0563 4.1 84.9903 3.96 84.9023 3.844C84.8143 3.728 84.7103 3.634 84.5903 3.562C84.4743 3.486 84.3443 3.432 84.2003 3.4C84.0603 3.364 83.9143 3.346 83.7623 3.346C83.5063 3.346 83.2863 3.39 83.1023 3.478C82.9183 3.562 82.7663 3.676 82.6463 3.82C82.5303 3.964 82.4443 4.128 82.3883 4.312C82.3363 4.492 82.3103 4.68 82.3103 4.876C82.3103 5.076 82.3383 5.272 82.3943 5.464C82.4543 5.652 82.5443 5.82 82.6643 5.968C82.7843 6.116 82.9363 6.236 83.1203 6.328C83.3043 6.416 83.5243 6.46 83.7803 6.46C83.9403 6.46 84.0903 6.44 84.2303 6.4C84.3703 6.36 84.4963 6.3 84.6083 6.22C84.7243 6.136 84.8243 6.034 84.9083 5.914C84.9923 5.79 85.0563 5.644 85.1003 5.476ZM86.4934 7V2.8H89.5414V3.46H87.1954V4.552H89.0734V5.212H87.1954V6.34H89.5414V7H86.4934Z" fill="#A6A6A6"/>
</svg>
